<?xml version="1.0" standalone="no"?>
<svg class="bottom-wave" xmlns="http://www.w3.org/2000/svg" viewBox="0 0 1440 320">
  <path fill="#F9FAFC" fill-opacity="1" d="M0,256L30,218.7C60,181,120,107,180,101.3C240,96,300,160,360,165.3C420,171,480,117,540,133.3C600,149,660,235,720,250.7C780,267,840,213,900,160C960,107,1020,53,1080,53.3C1140,53,1200,107,1260,138.7C1320,171,1380,181,1410,186.7L1440,192L1440,320L1410,320C1380,320,1320,320,1260,320C1200,320,1140,320,1080,320C1020,320,960,320,900,320C840,320,780,320,720,320C660,320,600,320,540,320C480,320,420,320,360,320C300,320,240,320,180,320C120,320,60,320,30,320L0,320Z"></path>
</svg>
