<?xml version="1.0" standalone="no"?>
<svg viewBox="0 0 200 200" xmlns="http://www.w3.org/2000/svg">
  <path fill="#FF0066" d="M34.6,-49.6C49.6,-44.1,70,-42.7,73.7,-33.9C77.4,-25.1,64.3,-8.8,60.9,8.1C57.5,25.1,63.7,42.8,57.6,50C51.5,57.2,33.2,53.8,18.7,53.3C4.3,52.8,-6.3,55.2,-18.8,55.5C-31.3,55.7,-45.8,54,-59.3,46.7C-72.8,39.5,-85.3,26.8,-83,14.6C-80.7,2.3,-63.5,-9.4,-51.9,-19.1C-40.2,-28.7,-34.2,-36.3,-26.5,-45.2C-18.8,-54,-9.4,-64.2,0.2,-64.5C9.8,-64.8,19.5,-55.1,34.6,-49.6Z" transform="translate(100 100)" />
</svg>
